<svg data-v-decfdd8a="" version="1.0" xmlns="http://www.w3.org/2000/svg" xmlns:xlink="http://www.w3.org/1999/xlink"
     width="100%" height="100%" viewBox="0 0 340.000000 250.000000" preserveAspectRatio="xMidYMid meet"
     color-interpolation-filters="sRGB" style="margin: auto;">
    <rect data-v-decfdd8a="" x="0" y="0" width="100%" height="100%" fill="#fff" fill-opacity="0"
          class="background"></rect> <!---->
    <g data-v-decfdd8a="" fill="#333" class="icon-text-wrapper icon-svg-group iconsvg"
       transform="translate(47.410003662109375,94.53170204168403)">
        <g class="iconsvg-imagesvg" transform="translate(0,0)">
            <g>
                <rect fill="#333" fill-opacity="0" stroke-width="2" x="0" y="0" width="60" height="60.93659547241096"
                      class="image-rect"></rect>
                <svg x="0" y="0" width="60" height="60.93659547241096" filtersec="colorsb5811100093"
                     class="image-svg-svg primary" style="overflow: visible;">
                    <svg xmlns="http://www.w3.org/2000/svg"
                         viewBox="0.020832663401961327 -0.0012602644274011254 120.32170867919922 122.20000457763672">
                        <title>资源 171</title>
                        <path d="M70.6 5.3a55.6 55.6 0 1 0 29.8 102.6A61.1 61.1 0 1 1 98.8 13a55.19 55.19 0 0 0-28.2-7.7z"
                              fill="#35495e"></path>
                        <path d="M75.2 106.2a24.91 24.91 0 0 0 3.7-.9c4.9-2.3 9.4-5.3 12.4-9.4V37.6L75.2 50.5z"
                              fill="#35495e"></path>
                        <path d="M34.2 89.3a40 40 0 0 0 16.1 13.8V65.3L34.2 76.7z" fill="#e6362c"></path>
                        <path d="M54.4 104.7a40.46 40.46 0 0 0 13.1 2.2c1 0 2-.1 2.9-.1V52.1l-16 11.1z"
                              fill="#019589"></path>
                        <path d="M97 99.1a45.68 45.68 0 0 0-64.6-64.6 44.63 44.63 0 0 0-12.3 22.3 50.22 50.22 0 1 1 56.1 54.3 46.78 46.78 0 0 0 20.8-12z"
                              fill="#0092c6"></path>
                    </svg>
                </svg> <!---->
            </g>
        </g>
        <g transform="translate(67,12.775297164916992)">
            <g data-gra="path-name" fill-rule="" class="tp-name iconsvg-namesvg" transform="translate(0,0)">
                <g transform="scale(1)">
                    <g>
                        <path d="M9.15-18.89L9.15-18.89 9.15-18.35Q8.3-18.33 7.86-18.15 7.42-17.98 7.28-17.51 7.15-17.05 7.15-16.06L7.15-16.06 7.15-2.83Q7.15-1.87 7.3-1.39 7.44-0.91 7.87-0.75 8.3-0.59 9.15-0.53L9.15-0.53 9.15 0Q8.43-0.05 7.34-0.07 6.24-0.08 5.12-0.08L5.12-0.08Q3.82-0.08 2.71-0.07 1.6-0.05 0.91 0L0.91 0 0.91-0.53Q1.76-0.59 2.19-0.75 2.61-0.91 2.76-1.39 2.91-1.87 2.91-2.83L2.91-2.83 2.91-16.06Q2.91-17.05 2.76-17.51 2.61-17.98 2.17-18.15 1.73-18.33 0.91-18.35L0.91-18.35 0.91-18.89Q1.6-18.86 2.71-18.84 3.82-18.81 5.12-18.81L5.12-18.81Q6.24-18.81 7.34-18.84 8.43-18.86 9.15-18.89ZM20.6-14.17L20.6-14.17Q21.72-14.17 22.42-13.89 23.13-13.61 23.53-13.13L23.53-13.13Q23.96-12.62 24.16-11.82 24.36-11.02 24.36-9.66L24.36-9.66 24.36-2.48Q24.36-1.36 24.74-0.96 25.13-0.56 26.06-0.56L26.06-0.56 26.06 0Q25.56-0.03 24.54-0.07 23.53-0.11 22.54-0.11L22.54-0.11Q21.53-0.11 20.56-0.07 19.58-0.03 19.08 0L19.08 0 19.08-0.56Q19.88-0.56 20.2-0.96 20.52-1.36 20.52-2.48L20.52-2.48 20.52-10.78Q20.52-11.45 20.38-11.94 20.25-12.43 19.9-12.71 19.56-12.99 18.86-12.99L18.86-12.99Q17.74-12.99 16.98-12.11 16.22-11.23 16.22-9.9L16.22-9.9 16.22-2.48Q16.22-1.36 16.55-0.96 16.89-0.56 17.66-0.56L17.66-0.56 17.66 0Q17.18-0.03 16.26-0.07 15.34-0.11 14.35-0.11L14.35-0.11Q13.34-0.11 12.27-0.07 11.2-0.03 10.67 0L10.67 0 10.67-0.56Q11.61-0.56 11.99-0.96 12.38-1.36 12.38-2.48L12.38-2.48 12.38-10.88Q12.38-12.09 12.02-12.66 11.66-13.23 10.67-13.23L10.67-13.23 10.67-13.79Q11.53-13.71 12.33-13.71L12.33-13.71Q13.45-13.71 14.42-13.81 15.39-13.9 16.22-14.09L16.22-14.09 16.22-11.69Q16.89-13.05 18.03-13.61 19.18-14.17 20.6-14.17ZM34.1-20.86L34.1-20.86Q35.03-20.86 35.72-20.62 36.42-20.38 36.95-19.98L36.95-19.98Q37.32-19.69 37.59-19.17 37.86-18.65 37.86-17.98L37.86-17.98Q37.86-17.26 37.34-16.7 36.82-16.14 35.96-16.14L35.96-16.14Q35.08-16.14 34.51-16.65 33.94-17.15 33.94-18.03L33.94-18.03Q33.94-18.73 34.34-19.26 34.74-19.8 35.51-20.01L35.51-20.01Q35.43-20.17 35.19-20.28 34.95-20.38 34.55-20.38L34.55-20.38Q34.02-20.38 33.67-20.2 33.32-20.01 33.11-19.69L33.11-19.69Q32.81-19.29 32.71-18.53 32.6-17.77 32.6-16.19L32.6-16.19 32.6-13.77 35.46-13.77 35.46-13.23 32.6-13.23 32.6-2.75Q32.6-1.44 33.27-1 33.94-0.56 35.11-0.56L35.11-0.56 35.11 0Q34.42-0.03 33.16-0.07 31.91-0.11 30.52-0.11L30.52-0.11Q29.51-0.11 28.53-0.07 27.56-0.03 27.05 0L27.05 0 27.05-0.56Q27.99-0.56 28.37-0.96 28.76-1.36 28.76-2.48L28.76-2.48 28.76-13.23 26.95-13.23 26.95-13.77 28.76-13.77Q28.76-16.14 29.13-17.38 29.51-18.62 30.44-19.53L30.44-19.53Q31.03-20.09 32-20.48 32.97-20.86 34.1-20.86ZM45.62-14.17L45.62-14.17Q46.47-14.17 47.01-13.81 47.54-13.45 47.79-12.89 48.05-12.33 48.05-11.71L48.05-11.71Q48.05-10.72 47.47-10.1 46.9-9.47 45.97-9.47L45.97-9.47Q45.03-9.47 44.51-9.94 43.99-10.4 43.99-11.18L43.99-11.18Q43.99-11.93 44.33-12.42 44.66-12.91 45.17-13.26L45.17-13.26Q44.79-13.37 44.42-13.23L44.42-13.23Q43.73-13.13 43.18-12.58 42.63-12.03 42.31-11.29 41.99-10.54 41.99-9.82L41.99-9.82 41.99-2.75Q41.99-1.47 42.62-1.01 43.25-0.56 44.5-0.56L44.5-0.56 44.5 0Q43.89-0.03 42.71-0.07 41.54-0.11 40.26-0.11L40.26-0.11Q39.19-0.11 38.1-0.07 37-0.03 36.44 0L36.44 0 36.44-0.56Q37.38-0.56 37.76-0.96 38.15-1.36 38.15-2.48L38.15-2.48 38.15-10.88Q38.15-12.09 37.79-12.66 37.43-13.23 36.44-13.23L36.44-13.23 36.44-13.79Q37.3-13.71 38.1-13.71L38.1-13.71Q39.22-13.71 40.19-13.81 41.16-13.9 41.99-14.09L41.99-14.09 41.99-11.61Q42.31-12.33 42.85-12.91 43.38-13.5 44.07-13.83 44.77-14.17 45.62-14.17ZM52.42 0.19L52.42 0.19Q50.64 0.19 49.84-0.75 49.04-1.68 49.04-3.01L49.04-3.01Q49.04-4.16 49.56-4.88 50.08-5.6 50.9-6.07 51.73-6.54 52.65-6.84 53.57-7.15 54.41-7.46 55.25-7.76 55.77-8.16 56.29-8.56 56.29-9.18L56.29-9.18 56.29-11.26Q56.29-11.95 56.06-12.5 55.84-13.05 55.37-13.34 54.9-13.63 54.16-13.63L54.16-13.63Q53.62-13.63 53.09-13.49 52.56-13.34 52.21-12.99L52.21-12.99Q52.96-12.73 53.37-12.18 53.78-11.63 53.78-10.94L53.78-10.94Q53.78-10.03 53.16-9.5 52.53-8.96 51.68-8.96L51.68-8.96Q50.72-8.96 50.22-9.56 49.73-10.16 49.73-11.02L49.73-11.02Q49.73-11.79 50.12-12.3 50.5-12.81 51.2-13.26L51.2-13.26Q51.94-13.69 53-13.93 54.05-14.17 55.28-14.17L55.28-14.17Q56.51-14.17 57.49-13.91 58.48-13.66 59.15-12.99L59.15-12.99Q59.76-12.38 59.95-11.49 60.13-10.59 60.13-9.23L60.13-9.23 60.13-1.97Q60.13-1.33 60.27-1.07 60.4-0.8 60.72-0.8L60.72-0.8Q60.99-0.8 61.23-0.93 61.47-1.07 61.68-1.25L61.68-1.25 61.95-0.8Q61.39-0.32 60.65-0.07 59.92 0.19 59.01 0.19L59.01 0.19Q57.41 0.19 56.89-0.47 56.37-1.12 56.35-1.97L56.35-1.97Q55.68-0.88 54.7-0.35 53.73 0.19 52.42 0.19ZM54.48-1.52L54.48-1.52Q54.98-1.52 55.42-1.76 55.86-2 56.29-2.61L56.29-2.61 56.29-8.08Q55.97-7.55 55.4-7.19 54.82-6.83 54.22-6.42 53.62-6 53.22-5.36 52.82-4.72 52.82-3.65L52.82-3.65Q52.82-2.51 53.3-2.01 53.78-1.52 54.48-1.52ZM69.66-19.24L69.66-19.24Q71.23-19.24 72.09-18.9 72.94-18.57 73.55-18.19L73.55-18.19Q73.87-18.01 74.07-17.91 74.27-17.82 74.46-17.82L74.46-17.82Q74.89-17.82 75.05-19L75.05-19 75.66-19Q75.63-18.49 75.59-17.78 75.55-17.07 75.54-15.93 75.53-14.78 75.53-12.91L75.53-12.91 74.91-12.91Q74.81-14.3 74.27-15.61 73.74-16.91 72.77-17.75 71.79-18.59 70.38-18.59L70.38-18.59Q69.1-18.59 68.27-17.87 67.44-17.15 67.44-15.87L67.44-15.87Q67.44-14.81 67.98-14.05 68.51-13.29 69.54-12.57 70.56-11.85 72.03-10.83L72.03-10.83Q73.31-10 74.33-9.18 75.34-8.35 75.95-7.31 76.57-6.27 76.57-4.83L76.57-4.83Q76.57-3.07 75.65-1.92 74.73-0.77 73.23-0.2 71.74 0.37 69.95 0.37L69.95 0.37Q68.3 0.37 67.31 0.05 66.32-0.27 65.66-0.61L65.66-0.61Q65.07-0.99 64.75-0.99L64.75-0.99Q64.32-0.99 64.16 0.19L64.16 0.19 63.55 0.19Q63.6-0.45 63.61-1.31 63.63-2.16 63.64-3.53 63.65-4.91 63.65-7.02L63.65-7.02 64.27-7.02Q64.38-5.26 64.87-3.72 65.36-2.19 66.39-1.25 67.42-0.32 69.12-0.32L69.12-0.32Q70.51-0.32 71.47-1.07 72.43-1.81 72.43-3.31L72.43-3.31Q72.43-4.96 71.31-6.04 70.19-7.12 68.43-8.27L68.43-8.27Q67.18-9.1 66.08-9.92 64.99-10.75 64.34-11.82 63.68-12.89 63.68-14.35L63.68-14.35Q63.68-16.03 64.52-17.11 65.36-18.19 66.74-18.71 68.11-19.24 69.66-19.24ZM83.72-18.17L83.72-18.17 83.72-13.79 86.87-13.79 86.87-13.26 83.72-13.26 83.72-2.48Q83.72-1.68 84.01-1.35 84.3-1.01 84.89-1.01L84.89-1.01Q85.37-1.01 85.85-1.37 86.33-1.73 86.71-2.61L86.71-2.61 87.16-2.37Q86.73-1.17 85.86-0.4 85 0.37 83.5 0.37L83.5 0.37Q82.62 0.37 81.96 0.15 81.29-0.08 80.84-0.53L80.84-0.53Q80.25-1.12 80.06-1.99 79.88-2.85 79.88-4.24L79.88-4.24 79.88-13.26 77.63-13.26 77.63-13.79 79.88-13.79 79.88-17.31Q81-17.31 81.94-17.51 82.89-17.71 83.72-18.17ZM96.87-14.17L96.87-14.17Q97.72-14.17 98.26-13.81 98.79-13.45 99.04-12.89 99.3-12.33 99.3-11.71L99.3-11.71Q99.3-10.72 98.72-10.1 98.15-9.47 97.22-9.47L97.22-9.47Q96.28-9.47 95.76-9.94 95.24-10.4 95.24-11.18L95.24-11.18Q95.24-11.93 95.58-12.42 95.91-12.91 96.42-13.26L96.42-13.26Q96.04-13.37 95.67-13.23L95.67-13.23Q94.98-13.13 94.43-12.58 93.88-12.03 93.56-11.29 93.24-10.54 93.24-9.82L93.24-9.82 93.24-2.75Q93.24-1.47 93.87-1.01 94.5-0.56 95.75-0.56L95.75-0.56 95.75 0Q95.14-0.03 93.96-0.07 92.79-0.11 91.51-0.11L91.51-0.11Q90.44-0.11 89.35-0.07 88.25-0.03 87.69 0L87.69 0 87.69-0.56Q88.63-0.56 89.01-0.96 89.4-1.36 89.4-2.48L89.4-2.48 89.4-10.88Q89.4-12.09 89.04-12.66 88.68-13.23 87.69-13.23L87.69-13.23 87.69-13.79Q88.55-13.71 89.35-13.71L89.35-13.71Q90.47-13.71 91.44-13.81 92.41-13.9 93.24-14.09L93.24-14.09 93.24-11.61Q93.56-12.33 94.1-12.91 94.63-13.5 95.32-13.83 96.02-14.17 96.87-14.17ZM113.44-14.09L113.44-14.09 113.44-2.91Q113.44-1.71 113.81-1.13 114.18-0.56 115.14-0.56L115.14-0.56 115.14 0Q114.32-0.08 113.49-0.08L113.49-0.08Q112.37-0.08 111.41 0 110.45 0.08 109.6 0.29L109.6 0.29 109.6-2.11Q108.96-0.77 107.82-0.2 106.69 0.37 105.3 0.37L105.3 0.37Q104.18 0.37 103.49 0.08 102.79-0.21 102.39-0.67L102.39-0.67Q101.94-1.17 101.75-2 101.57-2.83 101.57-4.14L101.57-4.14 101.57-10.88Q101.57-12.09 101.2-12.66 100.84-13.23 99.86-13.23L99.86-13.23 99.86-13.79Q100.71-13.71 101.51-13.71L101.51-13.71Q102.63-13.71 103.61-13.81 104.58-13.9 105.41-14.09L105.41-14.09 105.41-3.04Q105.41-2.37 105.53-1.87 105.65-1.36 105.99-1.08 106.34-0.8 107.01-0.8L107.01-0.8Q108.07-0.8 108.84-1.69 109.6-2.59 109.6-3.9L109.6-3.9 109.6-10.88Q109.6-12.09 109.24-12.66 108.88-13.23 107.89-13.23L107.89-13.23 107.89-13.79Q108.74-13.71 109.54-13.71L109.54-13.71Q110.66-13.71 111.64-13.81 112.61-13.9 113.44-14.09ZM123.25-14.17L123.25-14.17Q124.3-14.17 125.16-13.94 126.03-13.71 126.59-13.37L126.59-13.37Q127.28-12.94 127.67-12.31 128.06-11.69 128.06-10.86L128.06-10.86Q128.06-9.92 127.47-9.32 126.88-8.72 125.95-8.72L125.95-8.72Q125.02-8.72 124.46-9.26 123.9-9.79 123.9-10.7L123.9-10.7Q123.9-11.55 124.43-12.13 124.96-12.7 125.66-12.89L125.66-12.89Q125.44-13.15 125.02-13.34 124.59-13.53 124.06-13.53L124.06-13.53Q123.23-13.53 122.6-13.05 121.97-12.57 121.55-11.71 121.12-10.86 120.89-9.71 120.67-8.56 120.67-7.2L120.67-7.2Q120.67-5.15 121.19-3.98 121.71-2.8 122.52-2.32 123.33-1.84 124.22-1.84L124.22-1.84Q124.96-1.84 125.92-2.25 126.88-2.67 127.71-4L127.71-4 128.16-3.84Q127.87-2.85 127.2-1.87 126.54-0.88 125.47-0.25 124.4 0.37 122.85 0.37L122.85 0.37Q121.12 0.37 119.72-0.39 118.32-1.15 117.48-2.73 116.64-4.32 116.64-6.83L116.64-6.83Q116.64-9.23 117.51-10.87 118.37-12.51 119.87-13.34 121.36-14.17 123.25-14.17ZM134.97-18.17L134.97-18.17 134.97-13.79 138.11-13.79 138.11-13.26 134.97-13.26 134.97-2.48Q134.97-1.68 135.26-1.35 135.55-1.01 136.14-1.01L136.14-1.01Q136.62-1.01 137.1-1.37 137.58-1.73 137.95-2.61L137.95-2.61 138.41-2.37Q137.98-1.17 137.11-0.4 136.25 0.37 134.75 0.37L134.75 0.37Q133.87 0.37 133.21 0.15 132.54-0.08 132.09-0.53L132.09-0.53Q131.5-1.12 131.31-1.99 131.12-2.85 131.12-4.24L131.12-4.24 131.12-13.26 128.88-13.26 128.88-13.79 131.12-13.79 131.12-17.31Q132.25-17.31 133.19-17.51 134.14-17.71 134.97-18.17ZM152.23-14.09L152.23-14.09 152.23-2.91Q152.23-1.71 152.6-1.13 152.97-0.56 153.94-0.56L153.94-0.56 153.94 0Q153.11-0.08 152.28-0.08L152.28-0.08Q151.16-0.08 150.2 0 149.24 0.08 148.39 0.29L148.39 0.29 148.39-2.11Q147.75-0.77 146.61-0.2 145.48 0.37 144.09 0.37L144.09 0.37Q142.97 0.37 142.28 0.08 141.58-0.21 141.18-0.67L141.18-0.67Q140.73-1.17 140.54-2 140.36-2.83 140.36-4.14L140.36-4.14 140.36-10.88Q140.36-12.09 140-12.66 139.64-13.23 138.65-13.23L138.65-13.23 138.65-13.79Q139.5-13.71 140.3-13.71L140.3-13.71Q141.42-13.71 142.4-13.81 143.37-13.9 144.2-14.09L144.2-14.09 144.2-3.04Q144.2-2.37 144.32-1.87 144.44-1.36 144.78-1.08 145.13-0.8 145.8-0.8L145.8-0.8Q146.87-0.8 147.63-1.69 148.39-2.59 148.39-3.9L148.39-3.9 148.39-10.88Q148.39-12.09 148.03-12.66 147.67-13.23 146.68-13.23L146.68-13.23 146.68-13.79Q147.53-13.71 148.33-13.71L148.33-13.71Q149.45-13.71 150.43-13.81 151.4-13.9 152.23-14.09ZM164.29-14.17L164.29-14.17Q165.14-14.17 165.67-13.81 166.21-13.45 166.46-12.89 166.71-12.33 166.71-11.71L166.71-11.71Q166.71-10.72 166.14-10.1 165.57-9.47 164.63-9.47L164.63-9.47Q163.7-9.47 163.18-9.94 162.66-10.4 162.66-11.18L162.66-11.18Q162.66-11.93 162.99-12.42 163.33-12.91 163.83-13.26L163.83-13.26Q163.46-13.37 163.09-13.23L163.09-13.23Q162.39-13.13 161.85-12.58 161.3-12.03 160.98-11.29 160.66-10.54 160.66-9.82L160.66-9.82 160.66-2.75Q160.66-1.47 161.29-1.01 161.91-0.56 163.17-0.56L163.17-0.56 163.17 0Q162.55-0.03 161.38-0.07 160.2-0.11 158.92-0.11L158.92-0.11Q157.86-0.11 156.76-0.07 155.67-0.03 155.11 0L155.11 0 155.11-0.56Q156.04-0.56 156.43-0.96 156.82-1.36 156.82-2.48L156.82-2.48 156.82-10.88Q156.82-12.09 156.46-12.66 156.1-13.23 155.11-13.23L155.11-13.23 155.11-13.79Q155.96-13.71 156.76-13.71L156.76-13.71Q157.88-13.71 158.86-13.81 159.83-13.9 160.66-14.09L160.66-14.09 160.66-11.61Q160.98-12.33 161.51-12.91 162.05-13.5 162.74-13.83 163.43-14.17 164.29-14.17ZM174.08-14.17L174.08-14.17Q176.43-14.17 177.76-12.78 179.09-11.39 179.09-8.24L179.09-8.24 170.32-8.24 170.26-8.75 175.73-8.75Q175.76-10.06 175.57-11.16 175.38-12.27 174.98-12.94 174.58-13.61 173.92-13.61L173.92-13.61Q172.98-13.61 172.33-12.43 171.68-11.26 171.54-8.54L171.54-8.54 171.62-8.38Q171.6-8.06 171.58-7.71 171.57-7.36 171.57-6.99L171.57-6.99Q171.57-5.15 172.09-4 172.61-2.85 173.41-2.33 174.21-1.81 175.04-1.81L175.04-1.81Q175.84-1.81 176.79-2.21 177.73-2.61 178.56-3.95L178.56-3.95 179.04-3.79Q178.72-2.77 178.03-1.81 177.33-0.85 176.27-0.24 175.2 0.37 173.7 0.37L173.7 0.37Q171.89 0.37 170.5-0.4 169.12-1.17 168.33-2.75 167.54-4.32 167.54-6.75L167.54-6.75Q167.54-9.23 168.38-10.88 169.22-12.54 170.7-13.35 172.18-14.17 174.08-14.17Z"
                              transform="translate(-0.9100000262260437, 20.860000610351562)"></path>
                    </g> <!----> <!----> <!----> <!----> <!----> <!----> <!---->
                </g>
            </g>
            <g data-gra="path-slogan" fill-rule="" class="tp-slogan iconsvg-slogansvg" fill="#333"
               transform="translate(5,27.23000144958496)">
                <rect x="0" height="1" y="3.580000400543213" width="60.43999671936035"></rect>
                <rect height="1" y="3.580000400543213" width="60.43999671936035" x="107.7399959564209"></rect>
                <g transform="translate(63.43999671936035,0)">
                    <g transform="scale(1)">
                        <path d="M2.08-4.14L2.08-7.07L3.40-7.07C4.01-7.07 4.48-6.96 4.81-6.76C5.14-6.55 5.30-6.18 5.30-5.66C5.30-5.15 5.14-4.77 4.81-4.52C4.48-4.27 4.01-4.14 3.40-4.14ZM5.40 0L6.53 0L4.54-3.43C5.07-3.57 5.50-3.82 5.82-4.19C6.14-4.56 6.30-5.05 6.30-5.66C6.30-6.07 6.23-6.42 6.10-6.70C5.96-6.98 5.77-7.20 5.53-7.38C5.28-7.56 4.99-7.68 4.65-7.76C4.31-7.83 3.94-7.87 3.54-7.87L1.08-7.87L1.08 0L2.08 0L2.08-3.32L3.50-3.32ZM10.96 0.14C11.45 0.14 11.91 0.05 12.32-0.14C12.73-0.34 13.09-0.61 13.39-0.97C13.69-1.32 13.92-1.75 14.08-2.26C14.25-2.77 14.33-3.34 14.33-3.97C14.33-4.60 14.25-5.16 14.08-5.66C13.92-6.16 13.69-6.58 13.39-6.93C13.09-7.28 12.73-7.55 12.32-7.73C11.91-7.92 11.45-8.02 10.96-8.02C10.46-8.02 10.01-7.92 9.59-7.74C9.18-7.56 8.83-7.29 8.53-6.94C8.24-6.59 8.01-6.17 7.84-5.67C7.68-5.17 7.60-4.60 7.60-3.97C7.60-3.34 7.68-2.77 7.84-2.26C8.01-1.75 8.24-1.32 8.53-0.97C8.83-0.61 9.18-0.34 9.59-0.14C10.01 0.05 10.46 0.14 10.96 0.14ZM10.96-0.73C10.60-0.73 10.29-0.81 10.00-0.96C9.72-1.11 9.47-1.33 9.27-1.61C9.07-1.90 8.91-2.24 8.80-2.63C8.68-3.03 8.63-3.48 8.63-3.97C8.63-4.46 8.68-4.90 8.80-5.29C8.91-5.68 9.07-6.02 9.27-6.29C9.47-6.56 9.72-6.77 10.00-6.92C10.29-7.07 10.60-7.14 10.96-7.14C11.31-7.14 11.63-7.07 11.91-6.92C12.19-6.77 12.44-6.56 12.64-6.29C12.85-6.02 13.00-5.68 13.12-5.29C13.23-4.90 13.28-4.46 13.28-3.97C13.28-3.48 13.23-3.03 13.12-2.63C13.00-2.24 12.85-1.90 12.64-1.61C12.44-1.33 12.19-1.11 11.91-0.96C11.63-0.81 11.31-0.73 10.96-0.73ZM16.04-1.72L15.44-1.02C15.79-0.66 16.20-0.38 16.67-0.17C17.14 0.04 17.65 0.14 18.20 0.14C18.62 0.14 18.99 0.09 19.32-0.03C19.65-0.15 19.93-0.31 20.16-0.51C20.39-0.71 20.57-0.95 20.69-1.22C20.82-1.50 20.88-1.79 20.88-2.10C20.88-2.39 20.84-2.64 20.75-2.86C20.67-3.08 20.56-3.27 20.41-3.44C20.27-3.60 20.10-3.75 19.90-3.87C19.70-3.99 19.48-4.10 19.26-4.20L18.14-4.68C17.98-4.74 17.83-4.81 17.68-4.89C17.52-4.97 17.38-5.05 17.26-5.15C17.13-5.25 17.03-5.37 16.95-5.50C16.87-5.63 16.84-5.80 16.84-5.99C16.84-6.35 16.97-6.63 17.24-6.83C17.51-7.04 17.86-7.14 18.30-7.14C18.67-7.14 19.00-7.07 19.29-6.94C19.58-6.81 19.85-6.63 20.09-6.40L20.63-7.04C20.35-7.33 20.01-7.57 19.61-7.75C19.21-7.93 18.77-8.02 18.30-8.02C17.94-8.02 17.61-7.96 17.31-7.86C17.01-7.76 16.75-7.61 16.53-7.42C16.31-7.23 16.14-7.01 16.01-6.76C15.89-6.50 15.83-6.22 15.83-5.93C15.83-5.64 15.88-5.39 15.97-5.17C16.07-4.95 16.19-4.76 16.34-4.60C16.50-4.44 16.67-4.30 16.86-4.19C17.05-4.08 17.24-3.98 17.42-3.90L18.55-3.41C18.74-3.32 18.91-3.24 19.07-3.16C19.23-3.08 19.37-2.99 19.48-2.89C19.60-2.79 19.69-2.67 19.76-2.53C19.83-2.39 19.86-2.22 19.86-2.02C19.86-1.63 19.72-1.32 19.43-1.09C19.14-0.85 18.74-0.73 18.22-0.73C17.81-0.73 17.41-0.82 17.03-1.00C16.65-1.18 16.32-1.42 16.04-1.72ZM22.43-7.87L22.43 0L23.42 0L23.42-3.71L27.08-3.71L27.08 0L28.09 0L28.09-7.87L27.08-7.87L27.08-4.57L23.42-4.57L23.42-7.87ZM33.60-3.20L31.24-3.20L31.61-4.40C31.75-4.84 31.89-5.28 32.02-5.72C32.14-6.15 32.27-6.60 32.39-7.06L32.44-7.06C32.56-6.60 32.69-6.15 32.82-5.72C32.95-5.28 33.08-4.84 33.23-4.40ZM33.85-2.40L34.60 0L35.66 0L33.00-7.87L31.87-7.87L29.21 0L30.23 0L30.98-2.40ZM36.78-7.87L36.78 0L37.73 0L37.73-4.12C37.73-4.53 37.71-4.95 37.69-5.36C37.66-5.77 37.63-6.18 37.60-6.58L37.64-6.58L38.50-4.96L41.35 0L42.38 0L42.38-7.87L41.44-7.87L41.44-3.80C41.44-3.39 41.45-2.97 41.48-2.54C41.51-2.11 41.53-1.70 41.56-1.30L41.51-1.30L40.66-2.93L37.81-7.87Z"
                              transform="translate(-1.08, 8.016)"></path>
                    </g>
                </g>
            </g>
        </g>
    </g>
    <defs v-gra="od"></defs>
</svg>