<?xml version="1.0" encoding="utf-8"?>
<svg xmlns="http://www.w3.org/2000/svg" xml:space="preserve" id="Layer_2" x="0" y="0" version="1.1" viewBox="0 0 566.9 566.9">
  <style>
    .st2,.st3{opacity:.2}.st3,.st4{fill:#fff}
  </style>
  <switch>
    <g>
      <path fill="#8d6e63" d="M490.8 548.1H314.7L196.2 77.3h294.6c32.3 0 58.8 26.4 58.8 58.8v353.3c0 32.3-26.4 58.7-58.8 58.7z"/>
      <path fill="#00695c" d="M490.8 548.1H314.7L196.2 77.3h294.6c32.3 0 58.8 26.4 58.8 58.8v353.3c0 32.3-26.4 58.7-58.8 58.7z"/>
      <path d="M490.8 543.9H314.7L197.3 77.3h-1.1l118.5 470.9h176.2c32.3 0 58.8-26.4 58.8-58.8v-4.2c-.1 32.3-26.5 58.7-58.9 58.7z" class="st2"/>
      <path d="M490.8 77.3H196.2l1.1 4.2h293.6c32.3 0 58.8 26.4 58.8 58.8V136c-.1-32.3-26.5-58.7-58.9-58.7z" class="st3"/>
      <path d="M273.4 341.1h214.8v29.1H273.4zm7.4 57.7h148.5v29.1H280.8z" class="st4"/>
      <path d="M273.4 341.1h214.8v29.1H273.4zm0-57.8h214.8v29.1H273.4z" class="st4"/>
      <path d="M273.4 283.3h214.8v29.1H273.4z" class="st4"/>
      <path fill="#004d40" d="M314.7 548.1 196.2 77.3l177 412.3z"/>
      <path d="M280.8 398.8h148.5v29.1H280.8zM273.4 196h214.8v55.8H273.4z" class="st4"/>
      <path d="M273.4 196h214.8v55.8H273.4z" class="st4"/>
      <linearGradient id="SVGID_1_" x1="512.1335" x2="180.0029" y1="548.1099" y2="152.292" gradientUnits="userSpaceOnUse">
        <stop offset="0" stop-opacity=".1"/>
        <stop offset="1"/>
      </linearGradient>
      <path fill="url(#SVGID_1_)" d="m290.6 297.1 82.6 192.5-58.5 58.5h176.1c32.3 0 58.8-26.4 58.8-58.8V357.5L269.4 77.3l21.2 219.8z" opacity=".2"/>
      <path fill="#bcaaa4" d="M373.2 489.6H78.5c-32.3 0-58.8-26.4-58.8-58.8V77.5c0-32.3 26.4-58.8 58.8-58.8h176.2l118.5 470.9z"/>
      <path fill="#26a69a" d="M373.2 489.6H78.5c-32.3 0-58.8-26.4-58.8-58.8V77.5c0-32.3 26.4-58.8 58.8-58.8h176.2l118.5 470.9z"/>
      <path d="M78.5 485.4c-32.3 0-58.8-26.4-58.8-58.8v4.2c0 32.3 26.4 58.8 58.8 58.8h294.6l-1.1-4.2H78.5z" class="st2"/>
      <path d="M141.5 254.2v33.4c0 8.3-6 15.1-13.4 15.1h-8.4c-7.4 0-13.4-6.8-13.4-15.1v-33.5H78.5v117.8h27.4v-41.8h28.5c18.9 0 34.4-15.5 34.4-34.4v-41.6h-27.3zm113.3 0v33.4c0 8.3-6 15.1-13.4 15.1H233c-7.4 0-13.4-6.8-13.4-15.1v-33.5h-27.7v117.8h27.4v-41.8h28.5c18.9 0 34.4-15.5 34.4-34.4v-41.6h-27.4z" class="st4"/>
      <path fill="#18ffff" d="M78.5 18.8v141l43.3 36.1 43.1-36V18.7z"/>
      <path fill="#dd2c00" d="M78.5 18.8v141l43.3 36.1 43.1-36V18.7z"/>
      <path d="M78.5 23h176.2l117.4 466.7h1.1L254.7 18.8H78.5c-32.3 0-58.8 26.4-58.8 58.8v4.2C19.8 49.4 46.2 23 78.5 23z" class="st3"/>
    </g>
  </switch>
</svg>