<?xml version="1.0" ?><svg enable-background="new 0 0 32 32" height="32px" id="svg2" version="1.1" viewBox="0 0 32 32" width="32px" xml:space="preserve" xmlns="http://www.w3.org/2000/svg" xmlns:cc="http://creativecommons.org/ns#" xmlns:dc="http://purl.org/dc/elements/1.1/" xmlns:inkscape="http://www.inkscape.org/namespaces/inkscape" xmlns:rdf="http://www.w3.org/1999/02/22-rdf-syntax-ns#" xmlns:sodipodi="http://sodipodi.sourceforge.net/DTD/sodipodi-0.dtd" xmlns:svg="http://www.w3.org/2000/svg"><g id="background"><rect fill="none" height="32" width="32"/></g><g id="edit_x5F_badge"><path d="M14,23c0-4.973,4.027-9,9-9l0,0c4.971,0,8.998,4.027,9,9l0,0c-0.002,4.971-4.029,8.998-9,9l0,0   C18.027,31.998,14,27.971,14,23L14,23z M16.116,23c0.008,3.799,3.083,6.874,6.884,6.883l0,0c3.799-0.009,6.874-3.084,6.883-6.883   l0,0c-0.009-3.801-3.084-6.876-6.883-6.885l0,0C19.199,16.124,16.124,19.199,16.116,23L16.116,23z"/><polygon points="22,27 19,27 19,24  "/><rect height="4.243" transform="matrix(-0.7071 0.7071 -0.7071 -0.7071 56.5269 20.5858)" width="7.071" x="20.464" y="19.879"/></g></svg>