<?xml version="1.0" encoding="iso-8859-1"?>
<!-- Generator: Adobe Illustrator 21.1.0, SVG Export Plug-In . SVG Version: 6.00 Build 0)  -->
<svg version="1.1" id="Layer_1" xmlns="http://www.w3.org/2000/svg" xmlns:xlink="http://www.w3.org/1999/xlink" x="0px" y="0px"
	 viewBox="0 0 67.476 68.213" style="enable-background:new 0 0 67.476 68.213;" xml:space="preserve">

	<path style="fill:#231F20;" d="M64.36,68.213H3.117C1.396,68.213,0,66.819,0,65.097V3.117C0,1.396,1.396,0,3.117,0H64.36
	c1.722,0,3.116,1.396,3.116,3.117v61.98C67.476,66.819,66.082,68.213,64.36,68.213z M6.233,61.981h55.01V6.233H6.233V61.981z"/>

	<path style="fill:#231F20;" d="M1.36,1.213H3.117C1.396,68.213,0,66.819,0,65.097V3.117C0,1.396,1.396,0,3.117,0H64.36
	c1.722,0,3.116,1.396,3.116,3.117v61.98C67.476,66.819,66.082,68.213,64.36,68.213z M6.233,61.981h55.01V6.233H6.233V61.981z"/>
</svg>
